<svg xmlns="http://www.w3.org/2000/svg" xmlns:xlink="http://www.w3.org/1999/xlink" version="1.0" x="0" y="0" width="2400" height="955.4005538947504" viewBox="45.812386169433594 76.75720275878906 242.3752276611328 96.48559448242187" preserveAspectRatio="xMidYMid meet" color-interpolation-filters="sRGB"><g><defs><linearGradient id="92" x1="0%" y1="0%" x2="100%" y2="0%"><stop offset="0%" stop-color="#fa71cd"></stop> <stop offset="100%" stop-color="#9b59b6"></stop></linearGradient><linearGradient id="93" x1="0%" y1="0%" x2="100%" y2="0%"><stop offset="0%" stop-color="#f9d423"></stop> <stop offset="100%" stop-color="#f83600"></stop></linearGradient><linearGradient id="94" x1="0%" y1="0%" x2="100%" y2="0%"><stop offset="0%" stop-color="#0064d2"></stop> <stop offset="100%" stop-color="#1cb0f6"></stop></linearGradient><linearGradient id="95" x1="0%" y1="0%" x2="100%" y2="0%"><stop offset="0%" stop-color="#f00978"></stop> <stop offset="100%" stop-color="#3f51b1"></stop></linearGradient><linearGradient id="96" x1="0%" y1="0%" x2="100%" y2="0%"><stop offset="0%" stop-color="#7873f5"></stop> <stop offset="100%" stop-color="#ec77ab"></stop></linearGradient><linearGradient id="97" x1="0%" y1="0%" x2="100%" y2="0%"><stop offset="0%" stop-color="#f9d423"></stop> <stop offset="100%" stop-color="#e14fad"></stop></linearGradient><linearGradient id="98" x1="0%" y1="0%" x2="100%" y2="0%"><stop offset="0%" stop-color="#009efd"></stop> <stop offset="100%" stop-color="#2af598"></stop></linearGradient><linearGradient id="99" x1="0%" y1="0%" x2="100%" y2="0%"><stop offset="0%" stop-color="#ffcc00"></stop> <stop offset="100%" stop-color="#00b140"></stop></linearGradient><linearGradient id="100" x1="0%" y1="0%" x2="100%" y2="0%"><stop offset="0%" stop-color="#d51007"></stop> <stop offset="100%" stop-color="#ff8177"></stop></linearGradient><linearGradient id="102" x1="0%" y1="0%" x2="100%" y2="0%"><stop offset="0%" stop-color="#a2b6df"></stop> <stop offset="100%" stop-color="#0c3483"></stop></linearGradient><linearGradient id="103" x1="0%" y1="0%" x2="100%" y2="0%"><stop offset="0%" stop-color="#7ac5d8"></stop> <stop offset="100%" stop-color="#eea2a2"></stop></linearGradient><linearGradient id="104" x1="0%" y1="0%" x2="100%" y2="0%"><stop offset="0%" stop-color="#00ecbc"></stop> <stop offset="100%" stop-color="#007adf"></stop></linearGradient><linearGradient id="105" x1="0%" y1="0%" x2="100%" y2="0%"><stop offset="0%" stop-color="#b88746"></stop> <stop offset="100%" stop-color="#fdf5a6"></stop></linearGradient></defs><g fill="#FFFFFF" class="icon-text-wrapper icon-svg-group iconsvg" transform="translate(54.18861389160156,85.13343048095703)"><g class="iconsvg-imagesvg" transform="translate(0,0)" mask="url(#037164c1-967d-401c-8942-5da5414015df)"><g><rect fill="#FFFFFF" fill-opacity="0" stroke-width="2" x="0" y="0" width="29.399999999999977" height="79.73313806850534" class="image-rect"></rect> <svg x="0" y="0" width="29.399999999999977" height="79.73313806850534" filtersec="colorsb712063613" class="image-svg-svg primary" style="overflow: visible;"><svg xmlns="http://www.w3.org/2000/svg" viewBox="79.91000366210938 50.871238708496094 168.75161743164062 457.6620788574219"><path fill="#1a2128" d="M 248.32 87.21 Q 248.01 92.29 247.94 96.98 A 0.81 0.80 -2.0 0 1 247.20 97.77 Q 244.51 97.98 241.61 98.23 C 233.83 98.90 225.79 97.76 217.99 98.66 Q 188.98 101.97 167.63 118.18 Q 143.61 136.42 133.20 164.48 Q 127.07 181.01 127.08 197.21 Q 127.17 353.18 126.94 499.37 Q 126.93 503.75 126.99 507.53 A 0.66 0.66 0.0 0 1 126.34 508.20 Q 107.50 508.60 88.75 508.52 Q 86.28 508.51 80.90 508.09 Q 80.41 508.05 80.36 507.55 Q 79.91 502.70 79.91 498.28 Q 79.97 345.53 79.97 194.10 Q 79.97 180.04 85.07 160.96 Q 96.34 118.83 129.29 88.75 Q 153.07 67.04 185.60 57.16 Q 202.71 51.96 221.81 51.15 Q 234.04 50.63 247.64 51.08 A 0.42 0.42 0.0 0 1 248.05 51.49 C 248.48 63.53 249.03 75.33 248.32 87.21 Z"></path><circle fill="#1a2128" cx="205.63" cy="290.52" r="42.58"></circle></svg></svg> </g><rect v-gra="id" width="41.400001525878906" height="91.73313903808594" transform="translate(-6, -6)" style="pointer-events:none;" fill="url(#pcNqN0Do3pzMUefwH37P-)"></rect></g> <g transform="translate(46.400001525878906,14.316570281982422)"><g fillRule="" stroke="#FFFFFF" class="tp-name iconsvg-namesvg"><g transform="scale(1)"><g><path d="M11.51-34.9L11.51-2.63Q11.51 0.38 8.07 0.38L8.07 0.38Q4.57 0.38 4.57-2.63L4.57-2.63 4.57-34.9Q4.57-37.9 8.07-37.9L8.07-37.9Q11.51-37.9 11.51-34.9L11.51-34.9ZM12.82-45.78L12.82-45.78Q12.82-43.78 11.45-42.41 10.07-41.03 8.07-41.03L8.07-41.03Q6.07-41.03 4.66-42.41 3.25-43.78 3.25-45.78L3.25-45.78Q3.25-47.85 4.66-49.22 6.07-50.6 8.07-50.6L8.07-50.6Q10.07-50.6 11.45-49.22 12.82-47.85 12.82-45.78ZM33.59-31.77L28.4-31.77 28.4-9.01Q28.4-7.38 29.08-6.5 29.77-5.63 32.02-5.63L32.02-5.63 33.65-5.63Q36.09-5.63 35.96-2.75L35.96-2.75Q35.96 0.19 33.65 0.19L33.65 0.19 31.59 0.19Q29.58 0.19 27.83-0.34 26.08-0.88 24.46-1.88L24.46-1.88 24.46-1.81Q21.39-3.82 21.39-8.94L21.39-8.94 21.39-31.77 18.95-31.77Q16.7-31.77 16.57-34.71L16.57-34.71Q16.57-37.65 18.95-37.65L18.95-37.65 21.39-37.65 21.39-44.35Q21.39-47.35 24.96-47.35L24.96-47.35Q28.4-47.35 28.4-44.35L28.4-44.35 28.4-37.65 33.59-37.65Q36.03-37.65 35.9-34.71L35.9-34.71Q35.9-31.77 33.59-31.77L33.59-31.77ZM68.18-43.34L68.18-2.63Q68.18 0.38 64.48 0.38L64.48 0.38Q60.79 0.38 60.79-2.63L60.79-2.63 60.79-45.91Q60.79-47.35 61.61-48.5 62.42-49.66 64.74-49.66L64.74-49.66 86-49.66Q88.25-49.66 88.38-46.53L88.38-46.53Q88.5-43.34 86-43.34L86-43.34 68.18-43.34ZM84.19-25.83L84.19-25.83Q84.19-24.77 83.78-23.8 83.37-22.83 82.65-22.14 81.94-21.45 81-21.05 80.06-20.64 78.93-20.64L78.93-20.64Q76.81-20.64 75.31-22.14 73.8-23.64 73.8-25.83L73.8-25.83Q73.8-28.02 75.31-29.52 76.81-31.02 78.93-31.02L78.93-31.02Q80.06-31.02 81-30.62 81.94-30.21 82.65-29.49 83.37-28.77 83.78-27.83 84.19-26.89 84.19-25.83ZM101.76-47.28L101.76-2.44Q101.76 0.5 98.32 0.5L98.32 0.5Q94.82 0.5 94.82-2.44L94.82-2.44 94.82-47.28Q94.82-50.22 98.32-50.22L98.32-50.22Q101.76-50.22 101.76-47.28L101.76-47.28ZM120.4-37.65L130.41-37.65Q132.03-37.65 133.75-36.96 135.47-36.28 137.1-35.21L137.1-35.21 137.04-35.21Q138.66-34.03 139.54-32.12 140.42-30.21 140.42-27.71L140.42-27.71 140.42-9.94Q140.42-4.82 137.04-2.38L137.04-2.38Q133.72 0 130.41 0L130.41 0 120.4 0Q118.77 0 117.09-0.56 115.4-1.13 113.77-2.38L113.77-2.38Q110.39-4.75 110.39-9.94L110.39-9.94 110.39-27.71Q110.39-30.21 111.27-32.12 112.14-34.03 113.77-35.21L113.77-35.21 113.71-35.21Q115.27-36.28 117.02-36.96 118.77-37.65 120.4-37.65L120.4-37.65ZM121.53-5.88L129.28-5.88Q131.6-5.88 132.57-7.19 133.54-8.51 133.54-10.01L133.54-10.01 133.54-27.65Q133.54-29.21 132.57-30.49 131.6-31.77 129.28-31.77L129.28-31.77 121.53-31.77Q119.21-31.77 118.24-30.49 117.27-29.21 117.27-27.65L117.27-27.65 117.27-10.01Q117.27-8.51 118.24-7.19 119.21-5.88 121.53-5.88L121.53-5.88ZM165.87-19.51L161.43-1.94 161.49-2Q161.06-0.56 159.81-0.13 158.55 0.31 157.3 0.31L157.3 0.31Q156.11 0.31 154.83-0.13 153.55-0.56 153.18-2L153.18-2 153.24-1.94 145.04-34.34Q144.29-36.96 147.48-37.84L147.48-37.84Q150.55-38.65 151.42-35.71L151.42-35.71 151.42-35.78 156.49-15.39 158.18-15.39 163.25-35.78Q163.56-37.09 164.65-37.5 165.75-37.9 166.69-37.9L166.69-37.9Q167.75-37.9 168.78-37.43 169.81-36.96 170.19-35.78L170.19-35.78Q170.75-33.52 171.22-31.59 171.69-29.65 172.13-27.83 172.56-26.02 172.97-24.27 173.38-22.52 173.88-20.64L173.88-20.64 175.25-15.32 176.94-15.32Q178.19-20.39 179.48-25.55 180.76-30.71 182.01-35.78L182.01-35.78 181.95-35.71Q182.82-38.65 185.89-37.84L185.89-37.84Q189.08-37.09 188.33-34.34L188.33-34.34 180.19-1.94 180.26-2Q179.88-0.56 178.6-0.13 177.32 0.31 176.07 0.31L176.07 0.31Q174.88 0.31 173.63-0.13 172.38-0.56 171.94-2L171.94-2 172-1.94 167.56-19.51 165.87-19.51Z" transform="translate(-3.25, 50.599998474121094)" stroke-width="2.2" strokeLinejoin="round" mask="url(#urZS8SBOcpqKPBYIo1IJc)"></path></g> </g></g> </g></g><mask id="urZS8SBOcpqKPBYIo1IJc"><path d="M11.51-34.9L11.51-2.63Q11.51 0.38 8.07 0.38L8.07 0.38Q4.57 0.38 4.57-2.63L4.57-2.63 4.57-34.9Q4.57-37.9 8.07-37.9L8.07-37.9Q11.51-37.9 11.51-34.9L11.51-34.9ZM12.82-45.78L12.82-45.78Q12.82-43.78 11.45-42.41 10.07-41.03 8.07-41.03L8.07-41.03Q6.07-41.03 4.66-42.41 3.25-43.78 3.25-45.78L3.25-45.78Q3.25-47.85 4.66-49.22 6.07-50.6 8.07-50.6L8.07-50.6Q10.07-50.6 11.45-49.22 12.82-47.85 12.82-45.78ZM33.59-31.77L28.4-31.77 28.4-9.01Q28.4-7.38 29.08-6.5 29.77-5.63 32.02-5.63L32.02-5.63 33.65-5.63Q36.09-5.63 35.96-2.75L35.96-2.75Q35.96 0.19 33.65 0.19L33.65 0.19 31.59 0.19Q29.58 0.19 27.83-0.34 26.08-0.88 24.46-1.88L24.46-1.88 24.46-1.81Q21.39-3.82 21.39-8.94L21.39-8.94 21.39-31.77 18.95-31.77Q16.7-31.77 16.57-34.71L16.57-34.71Q16.57-37.65 18.95-37.65L18.95-37.65 21.39-37.65 21.39-44.35Q21.39-47.35 24.96-47.35L24.96-47.35Q28.4-47.35 28.4-44.35L28.4-44.35 28.4-37.65 33.59-37.65Q36.03-37.65 35.9-34.71L35.9-34.71Q35.9-31.77 33.59-31.77L33.59-31.77ZM68.18-43.34L68.18-2.63Q68.18 0.38 64.48 0.38L64.48 0.38Q60.79 0.38 60.79-2.63L60.79-2.63 60.79-45.91Q60.79-47.35 61.61-48.5 62.42-49.66 64.74-49.66L64.74-49.66 86-49.66Q88.25-49.66 88.38-46.53L88.38-46.53Q88.5-43.34 86-43.34L86-43.34 68.18-43.34ZM84.19-25.83L84.19-25.83Q84.19-24.77 83.78-23.8 83.37-22.83 82.65-22.14 81.94-21.45 81-21.05 80.06-20.64 78.93-20.64L78.93-20.64Q76.81-20.64 75.31-22.14 73.8-23.64 73.8-25.83L73.8-25.83Q73.8-28.02 75.31-29.52 76.81-31.02 78.93-31.02L78.93-31.02Q80.06-31.02 81-30.62 81.94-30.21 82.65-29.49 83.37-28.77 83.78-27.83 84.19-26.89 84.19-25.83ZM101.76-47.28L101.76-2.44Q101.76 0.5 98.32 0.5L98.32 0.5Q94.82 0.5 94.82-2.44L94.82-2.44 94.82-47.28Q94.82-50.22 98.32-50.22L98.32-50.22Q101.76-50.22 101.76-47.28L101.76-47.28ZM120.4-37.65L130.41-37.65Q132.03-37.65 133.75-36.96 135.47-36.28 137.1-35.21L137.1-35.21 137.04-35.21Q138.66-34.03 139.54-32.12 140.42-30.21 140.42-27.71L140.42-27.71 140.42-9.94Q140.42-4.82 137.04-2.38L137.04-2.38Q133.72 0 130.41 0L130.41 0 120.4 0Q118.77 0 117.09-0.56 115.4-1.13 113.77-2.38L113.77-2.38Q110.39-4.75 110.39-9.94L110.39-9.94 110.39-27.71Q110.39-30.21 111.27-32.12 112.14-34.03 113.77-35.21L113.77-35.21 113.71-35.21Q115.27-36.28 117.02-36.96 118.77-37.65 120.4-37.65L120.4-37.65ZM121.53-5.88L129.28-5.88Q131.6-5.88 132.57-7.19 133.54-8.51 133.54-10.01L133.54-10.01 133.54-27.65Q133.54-29.21 132.57-30.49 131.6-31.77 129.28-31.77L129.28-31.77 121.53-31.77Q119.21-31.77 118.24-30.49 117.27-29.21 117.27-27.65L117.27-27.65 117.27-10.01Q117.27-8.51 118.24-7.19 119.21-5.88 121.53-5.88L121.53-5.88ZM165.87-19.51L161.43-1.94 161.49-2Q161.06-0.56 159.81-0.13 158.55 0.31 157.3 0.31L157.3 0.31Q156.11 0.31 154.83-0.13 153.55-0.56 153.18-2L153.18-2 153.24-1.94 145.04-34.34Q144.29-36.96 147.48-37.84L147.48-37.84Q150.55-38.65 151.42-35.71L151.42-35.71 151.42-35.78 156.49-15.39 158.18-15.39 163.25-35.78Q163.56-37.09 164.65-37.5 165.75-37.9 166.69-37.9L166.69-37.9Q167.75-37.9 168.78-37.43 169.81-36.96 170.19-35.78L170.19-35.78Q170.75-33.52 171.22-31.59 171.69-29.65 172.13-27.83 172.56-26.02 172.97-24.27 173.38-22.52 173.88-20.64L173.88-20.64 175.25-15.32 176.94-15.32Q178.19-20.39 179.48-25.55 180.76-30.71 182.01-35.78L182.01-35.78 181.95-35.71Q182.82-38.65 185.89-37.84L185.89-37.84Q189.08-37.09 188.33-34.34L188.33-34.34 180.19-1.94 180.26-2Q179.88-0.56 178.6-0.13 177.32 0.31 176.07 0.31L176.07 0.31Q174.88 0.31 173.63-0.13 172.38-0.56 171.94-2L171.94-2 172-1.94 167.56-19.51 165.87-19.51Z" stroke-width="2.2" strokeLinejoin="round" stroke="#000" fill="#fff"></path></mask><defs v-gra="od"></defs><defs v-gra="id"><filter id="f320dfe4-bb50-41d0-baf0-77cb26b1ff89" filterUnits="userSpaceOnUse"><feColorMatrix type="matrix" values="0 0 0 0 0.99609375  0 0 0 0 0.99609375  0 0 0 0 0.99609375  0 0 0 1 0"></feColorMatrix></filter><linearGradient x1="0" y1="1" x2="0" y2="0" id="pcNqN0Do3pzMUefwH37P-"><stop offset="0%" stop-color="#ffffff"></stop><stop offset="50%" stop-color="#a0a8b2"></stop><stop offset="100%" stop-color="#032c30"></stop></linearGradient><filter id="42443b3f1de60f6b6fd3b6a9844b4764" filterUnits="objectBoundingBox"><feColorMatrix type="matrix" values="0 0 0 0 0.99609375  0 0 0 0 0.99609375  0 0 0 0 0.99609375  0 0 0 1 0"></feColorMatrix></filter></defs><mask v-gra="im" id="037164c1-967d-401c-8942-5da5414015df"><g class="iconsvg-imagesvg" filter="url(#f320dfe4-bb50-41d0-baf0-77cb26b1ff89)"><g><rect fill="#FFFFFF" fill-opacity="0" stroke-width="2" x="0" y="0" width="29.399999999999977" height="79.73313806850534" class="image-rect"></rect> <svg x="0" y="0" width="29.399999999999977" height="79.73313806850534" filtersec="colorsb712063613" class="image-svg-svg primary" style="overflow: visible;"><svg xmlns="http://www.w3.org/2000/svg" viewBox="79.91000366210938 50.871238708496094 168.75161743164062 457.6620788574219"><path fill="#1a2128" d="M 248.32 87.21 Q 248.01 92.29 247.94 96.98 A 0.81 0.80 -2.0 0 1 247.20 97.77 Q 244.51 97.98 241.61 98.23 C 233.83 98.90 225.79 97.76 217.99 98.66 Q 188.98 101.97 167.63 118.18 Q 143.61 136.42 133.20 164.48 Q 127.07 181.01 127.08 197.21 Q 127.17 353.18 126.94 499.37 Q 126.93 503.75 126.99 507.53 A 0.66 0.66 0.0 0 1 126.34 508.20 Q 107.50 508.60 88.75 508.52 Q 86.28 508.51 80.90 508.09 Q 80.41 508.05 80.36 507.55 Q 79.91 502.70 79.91 498.28 Q 79.97 345.53 79.97 194.10 Q 79.97 180.04 85.07 160.96 Q 96.34 118.83 129.29 88.75 Q 153.07 67.04 185.60 57.16 Q 202.71 51.96 221.81 51.15 Q 234.04 50.63 247.64 51.08 A 0.42 0.42 0.0 0 1 248.05 51.49 C 248.48 63.53 249.03 75.33 248.32 87.21 Z"></path><circle fill="#1a2128" cx="205.63" cy="290.52" r="42.58"></circle></svg></svg> </g></g></mask></g></svg>